<mxfile host="app.diagrams.net" agent="Mozilla/5.0 (Windows NT 10.0; Win64; x64) AppleWebKit/537.36 (KHTML, like Gecko) Chrome/136.0.0.0 Safari/537.36" version="26.3.0">
  <diagram name="Page-1" id="2YBvvXClWsGukQMizWep">
    <mxGraphModel dx="1722" dy="431" grid="1" gridSize="10" guides="1" tooltips="1" connect="1" arrows="1" fold="1" page="1" pageScale="1" pageWidth="850" pageHeight="1100" math="0" shadow="0">
      <root>
        <mxCell id="0" />
        <mxCell id="1" parent="0" />
        <mxCell id="aM9ryv3xv72pqoxQDRHE-1" value="Model" style="shape=umlLifeline;perimeter=lifelinePerimeter;whiteSpace=wrap;html=1;container=0;dropTarget=0;collapsible=0;recursiveResize=0;outlineConnect=0;portConstraint=eastwest;newEdgeStyle={&quot;edgeStyle&quot;:&quot;elbowEdgeStyle&quot;,&quot;elbow&quot;:&quot;vertical&quot;,&quot;curved&quot;:0,&quot;rounded&quot;:0};fillColor=#fa6800;fontColor=#000000;strokeColor=#C73500;" parent="1" vertex="1">
          <mxGeometry x="40" y="40" width="100" height="880" as="geometry" />
        </mxCell>
        <mxCell id="aM9ryv3xv72pqoxQDRHE-2" value="" style="html=1;points=[];perimeter=orthogonalPerimeter;outlineConnect=0;targetShapes=umlLifeline;portConstraint=eastwest;newEdgeStyle={&quot;edgeStyle&quot;:&quot;elbowEdgeStyle&quot;,&quot;elbow&quot;:&quot;vertical&quot;,&quot;curved&quot;:0,&quot;rounded&quot;:0};" parent="aM9ryv3xv72pqoxQDRHE-1" vertex="1">
          <mxGeometry x="45" y="70" width="10" height="730" as="geometry" />
        </mxCell>
        <mxCell id="aM9ryv3xv72pqoxQDRHE-5" value="View" style="shape=umlLifeline;perimeter=lifelinePerimeter;whiteSpace=wrap;html=1;container=0;dropTarget=0;collapsible=0;recursiveResize=0;outlineConnect=0;portConstraint=eastwest;newEdgeStyle={&quot;edgeStyle&quot;:&quot;elbowEdgeStyle&quot;,&quot;elbow&quot;:&quot;vertical&quot;,&quot;curved&quot;:0,&quot;rounded&quot;:0};fillColor=#d0cee2;strokeColor=#56517e;" parent="1" vertex="1">
          <mxGeometry x="220" y="40" width="100" height="880" as="geometry" />
        </mxCell>
        <mxCell id="aM9ryv3xv72pqoxQDRHE-6" value="" style="html=1;points=[];perimeter=orthogonalPerimeter;outlineConnect=0;targetShapes=umlLifeline;portConstraint=eastwest;newEdgeStyle={&quot;edgeStyle&quot;:&quot;elbowEdgeStyle&quot;,&quot;elbow&quot;:&quot;vertical&quot;,&quot;curved&quot;:0,&quot;rounded&quot;:0};" parent="aM9ryv3xv72pqoxQDRHE-5" vertex="1">
          <mxGeometry x="45" y="80" width="10" height="720" as="geometry" />
        </mxCell>
        <mxCell id="aM9ryv3xv72pqoxQDRHE-7" value="Retrieve data needed&amp;nbsp;&lt;div&gt;for presentation&lt;/div&gt;" style="html=1;verticalAlign=bottom;endArrow=block;edgeStyle=elbowEdgeStyle;elbow=vertical;curved=0;rounded=0;" parent="1" source="aM9ryv3xv72pqoxQDRHE-2" target="aM9ryv3xv72pqoxQDRHE-6" edge="1">
          <mxGeometry relative="1" as="geometry">
            <mxPoint x="195" y="130" as="sourcePoint" />
            <Array as="points">
              <mxPoint x="180" y="120" />
            </Array>
          </mxGeometry>
        </mxCell>
        <mxCell id="-ura81-7l-kkNAonVIPx-1" value="Template" style="shape=umlLifeline;perimeter=lifelinePerimeter;whiteSpace=wrap;html=1;container=0;dropTarget=0;collapsible=0;recursiveResize=0;outlineConnect=0;portConstraint=eastwest;newEdgeStyle={&quot;edgeStyle&quot;:&quot;elbowEdgeStyle&quot;,&quot;elbow&quot;:&quot;vertical&quot;,&quot;curved&quot;:0,&quot;rounded&quot;:0};fillColor=#b1ddf0;strokeColor=#10739e;" vertex="1" parent="1">
          <mxGeometry x="390" y="40" width="100" height="880" as="geometry" />
        </mxCell>
        <mxCell id="-ura81-7l-kkNAonVIPx-2" value="" style="html=1;points=[];perimeter=orthogonalPerimeter;outlineConnect=0;targetShapes=umlLifeline;portConstraint=eastwest;newEdgeStyle={&quot;edgeStyle&quot;:&quot;elbowEdgeStyle&quot;,&quot;elbow&quot;:&quot;vertical&quot;,&quot;curved&quot;:0,&quot;rounded&quot;:0};" vertex="1" parent="-ura81-7l-kkNAonVIPx-1">
          <mxGeometry x="45" y="80" width="10" height="720" as="geometry" />
        </mxCell>
        <mxCell id="-ura81-7l-kkNAonVIPx-5" value="&lt;font style=&quot;font-size: 25px;&quot;&gt;User&lt;/font&gt;" style="shape=umlActor;verticalLabelPosition=bottom;verticalAlign=top;html=1;outlineConnect=0;fillColor=light-dark(#F8CECC,#00FFEC);strokeColor=light-dark(#B85450,#0000D7);gradientColor=light-dark(#EA6B66,#FF0087);" vertex="1" parent="1">
          <mxGeometry x="-520" y="40" width="430" height="880" as="geometry" />
        </mxCell>
        <mxCell id="aM9ryv3xv72pqoxQDRHE-3" value="Add Note" style="html=1;verticalAlign=bottom;startArrow=none;endArrow=block;startSize=8;edgeStyle=elbowEdgeStyle;elbow=vertical;curved=0;rounded=0;exitX=0.75;exitY=0.1;exitDx=0;exitDy=0;exitPerimeter=0;startFill=0;" parent="1" edge="1">
          <mxGeometry relative="1" as="geometry">
            <mxPoint x="-177.5" y="110" as="sourcePoint" />
            <mxPoint x="89.5" y="110" as="targetPoint" />
          </mxGeometry>
        </mxCell>
        <mxCell id="-ura81-7l-kkNAonVIPx-6" value="" style="endArrow=classic;html=1;rounded=0;" edge="1" parent="1">
          <mxGeometry width="50" height="50" relative="1" as="geometry">
            <mxPoint x="269.5" y="130" as="sourcePoint" />
            <mxPoint x="435" y="130" as="targetPoint" />
          </mxGeometry>
        </mxCell>
        <mxCell id="-ura81-7l-kkNAonVIPx-7" value="Adds with data" style="edgeLabel;html=1;align=center;verticalAlign=middle;resizable=0;points=[];" vertex="1" connectable="0" parent="-ura81-7l-kkNAonVIPx-6">
          <mxGeometry x="0.0211" y="2" relative="1" as="geometry">
            <mxPoint x="1" as="offset" />
          </mxGeometry>
        </mxCell>
        <mxCell id="-ura81-7l-kkNAonVIPx-8" value="" style="endArrow=classic;html=1;rounded=0;dashed=1;" edge="1" parent="1">
          <mxGeometry width="50" height="50" relative="1" as="geometry">
            <mxPoint x="439.5" y="180" as="sourcePoint" />
            <mxPoint x="269.5" y="180" as="targetPoint" />
          </mxGeometry>
        </mxCell>
        <mxCell id="-ura81-7l-kkNAonVIPx-10" value="Adds dynamically&amp;nbsp;&lt;div&gt;the HTML content&lt;/div&gt;" style="edgeLabel;html=1;align=center;verticalAlign=middle;resizable=0;points=[];" vertex="1" connectable="0" parent="-ura81-7l-kkNAonVIPx-8">
          <mxGeometry x="0.1706" relative="1" as="geometry">
            <mxPoint x="21" as="offset" />
          </mxGeometry>
        </mxCell>
        <mxCell id="-ura81-7l-kkNAonVIPx-9" value="" style="endArrow=classic;html=1;rounded=0;dashed=1;" edge="1" parent="1">
          <mxGeometry width="50" height="50" relative="1" as="geometry">
            <mxPoint x="265" y="210" as="sourcePoint" />
            <mxPoint x="89.5" y="210" as="targetPoint" />
          </mxGeometry>
        </mxCell>
        <mxCell id="-ura81-7l-kkNAonVIPx-12" value="Formats in a&amp;nbsp;&lt;div&gt;user-friendly way&lt;/div&gt;" style="edgeLabel;html=1;align=center;verticalAlign=middle;resizable=0;points=[];" vertex="1" connectable="0" parent="-ura81-7l-kkNAonVIPx-9">
          <mxGeometry x="-0.0199" y="1" relative="1" as="geometry">
            <mxPoint as="offset" />
          </mxGeometry>
        </mxCell>
        <mxCell id="-ura81-7l-kkNAonVIPx-13" value="" style="endArrow=classic;html=1;rounded=0;dashed=1;" edge="1" parent="1">
          <mxGeometry width="50" height="50" relative="1" as="geometry">
            <mxPoint x="89.5" y="240" as="sourcePoint" />
            <mxPoint x="-90" y="240" as="targetPoint" />
          </mxGeometry>
        </mxCell>
        <mxCell id="-ura81-7l-kkNAonVIPx-14" value="Displays the&amp;nbsp;&lt;div&gt;new note&amp;nbsp;&lt;/div&gt;" style="edgeLabel;html=1;align=center;verticalAlign=middle;resizable=0;points=[];" vertex="1" connectable="0" parent="-ura81-7l-kkNAonVIPx-13">
          <mxGeometry x="-0.1811" y="1" relative="1" as="geometry">
            <mxPoint x="-16" as="offset" />
          </mxGeometry>
        </mxCell>
        <mxCell id="-ura81-7l-kkNAonVIPx-15" value="" style="endArrow=classic;html=1;rounded=0;" edge="1" parent="1">
          <mxGeometry width="50" height="50" relative="1" as="geometry">
            <mxPoint x="-90" y="310" as="sourcePoint" />
            <mxPoint x="89.5" y="310" as="targetPoint" />
          </mxGeometry>
        </mxCell>
        <mxCell id="-ura81-7l-kkNAonVIPx-16" value="Update Note" style="edgeLabel;html=1;align=center;verticalAlign=middle;resizable=0;points=[];" vertex="1" connectable="0" parent="-ura81-7l-kkNAonVIPx-15">
          <mxGeometry x="0.1253" y="2" relative="1" as="geometry">
            <mxPoint x="-11" as="offset" />
          </mxGeometry>
        </mxCell>
        <mxCell id="-ura81-7l-kkNAonVIPx-17" value="" style="endArrow=classic;html=1;rounded=0;" edge="1" parent="1">
          <mxGeometry width="50" height="50" relative="1" as="geometry">
            <mxPoint x="95" y="330" as="sourcePoint" />
            <mxPoint x="269.5" y="330" as="targetPoint" />
          </mxGeometry>
        </mxCell>
        <mxCell id="-ura81-7l-kkNAonVIPx-18" value="Retrieve data needed&amp;nbsp;&lt;div&gt;to update&lt;/div&gt;" style="edgeLabel;html=1;align=center;verticalAlign=middle;resizable=0;points=[];" vertex="1" connectable="0" parent="-ura81-7l-kkNAonVIPx-17">
          <mxGeometry x="-0.1289" y="1" relative="1" as="geometry">
            <mxPoint x="9" as="offset" />
          </mxGeometry>
        </mxCell>
        <mxCell id="-ura81-7l-kkNAonVIPx-19" value="" style="endArrow=classic;html=1;rounded=0;" edge="1" parent="1">
          <mxGeometry width="50" height="50" relative="1" as="geometry">
            <mxPoint x="265" y="359.5" as="sourcePoint" />
            <mxPoint x="435" y="359.5" as="targetPoint" />
          </mxGeometry>
        </mxCell>
        <mxCell id="-ura81-7l-kkNAonVIPx-20" value="Updates the note requested&amp;nbsp;&lt;div&gt;from the user&lt;/div&gt;" style="edgeLabel;html=1;align=center;verticalAlign=middle;resizable=0;points=[];" vertex="1" connectable="0" parent="-ura81-7l-kkNAonVIPx-19">
          <mxGeometry x="-0.3118" y="-1" relative="1" as="geometry">
            <mxPoint x="33" y="-1" as="offset" />
          </mxGeometry>
        </mxCell>
        <mxCell id="-ura81-7l-kkNAonVIPx-21" value="" style="endArrow=classic;html=1;rounded=0;dashed=1;" edge="1" parent="1">
          <mxGeometry width="50" height="50" relative="1" as="geometry">
            <mxPoint x="439.5" y="410" as="sourcePoint" />
            <mxPoint x="270" y="410" as="targetPoint" />
          </mxGeometry>
        </mxCell>
        <mxCell id="-ura81-7l-kkNAonVIPx-22" value="Updates dynamically&lt;div&gt;the HTML content&lt;/div&gt;" style="edgeLabel;html=1;align=center;verticalAlign=middle;resizable=0;points=[];" vertex="1" connectable="0" parent="-ura81-7l-kkNAonVIPx-21">
          <mxGeometry x="0.3864" y="1" relative="1" as="geometry">
            <mxPoint x="38" as="offset" />
          </mxGeometry>
        </mxCell>
        <mxCell id="-ura81-7l-kkNAonVIPx-23" value="" style="endArrow=classic;html=1;rounded=0;dashed=1;" edge="1" parent="1">
          <mxGeometry width="50" height="50" relative="1" as="geometry">
            <mxPoint x="264.5" y="450" as="sourcePoint" />
            <mxPoint x="90" y="450" as="targetPoint" />
          </mxGeometry>
        </mxCell>
        <mxCell id="-ura81-7l-kkNAonVIPx-24" value="Modify the new updated&amp;nbsp;&lt;div&gt;note in user-friendly way&lt;/div&gt;" style="edgeLabel;html=1;align=center;verticalAlign=middle;resizable=0;points=[];" vertex="1" connectable="0" parent="-ura81-7l-kkNAonVIPx-23">
          <mxGeometry x="0.0602" relative="1" as="geometry">
            <mxPoint x="19" as="offset" />
          </mxGeometry>
        </mxCell>
        <mxCell id="-ura81-7l-kkNAonVIPx-25" value="" style="endArrow=classic;html=1;rounded=0;dashed=1;" edge="1" parent="1">
          <mxGeometry width="50" height="50" relative="1" as="geometry">
            <mxPoint x="89.5" y="490" as="sourcePoint" />
            <mxPoint x="-90" y="490" as="targetPoint" />
          </mxGeometry>
        </mxCell>
        <mxCell id="-ura81-7l-kkNAonVIPx-26" value="Display the new&amp;nbsp;&lt;div&gt;updated note&lt;/div&gt;" style="edgeLabel;html=1;align=center;verticalAlign=middle;resizable=0;points=[];" vertex="1" connectable="0" parent="-ura81-7l-kkNAonVIPx-25">
          <mxGeometry x="-0.1253" y="2" relative="1" as="geometry">
            <mxPoint x="-10" as="offset" />
          </mxGeometry>
        </mxCell>
        <mxCell id="-ura81-7l-kkNAonVIPx-27" value="" style="endArrow=classic;html=1;rounded=0;" edge="1" parent="1">
          <mxGeometry width="50" height="50" relative="1" as="geometry">
            <mxPoint x="-100" y="540" as="sourcePoint" />
            <mxPoint x="89.5" y="540" as="targetPoint" />
          </mxGeometry>
        </mxCell>
        <mxCell id="-ura81-7l-kkNAonVIPx-28" value="Delete Note" style="edgeLabel;html=1;align=center;verticalAlign=middle;resizable=0;points=[];" vertex="1" connectable="0" parent="-ura81-7l-kkNAonVIPx-27">
          <mxGeometry x="-0.1873" y="-1" relative="1" as="geometry">
            <mxPoint x="23" as="offset" />
          </mxGeometry>
        </mxCell>
        <mxCell id="-ura81-7l-kkNAonVIPx-29" value="" style="endArrow=classic;html=1;rounded=0;" edge="1" parent="1">
          <mxGeometry width="50" height="50" relative="1" as="geometry">
            <mxPoint x="90" y="560" as="sourcePoint" />
            <mxPoint x="269.5" y="560" as="targetPoint" />
          </mxGeometry>
        </mxCell>
        <mxCell id="-ura81-7l-kkNAonVIPx-30" value="Retrieve the data needed&lt;div&gt;to delete&lt;/div&gt;" style="edgeLabel;html=1;align=center;verticalAlign=middle;resizable=0;points=[];" vertex="1" connectable="0" parent="-ura81-7l-kkNAonVIPx-29">
          <mxGeometry x="-0.2423" y="1" relative="1" as="geometry">
            <mxPoint x="22" as="offset" />
          </mxGeometry>
        </mxCell>
        <mxCell id="-ura81-7l-kkNAonVIPx-31" value="" style="endArrow=classic;html=1;rounded=0;" edge="1" parent="1" source="aM9ryv3xv72pqoxQDRHE-6">
          <mxGeometry width="50" height="50" relative="1" as="geometry">
            <mxPoint x="280" y="580" as="sourcePoint" />
            <mxPoint x="439.5" y="580" as="targetPoint" />
          </mxGeometry>
        </mxCell>
        <mxCell id="-ura81-7l-kkNAonVIPx-32" value="Deletes the note requested&amp;nbsp;&lt;div&gt;from the user&lt;/div&gt;" style="edgeLabel;html=1;align=center;verticalAlign=middle;resizable=0;points=[];" vertex="1" connectable="0" parent="-ura81-7l-kkNAonVIPx-31">
          <mxGeometry x="-0.1976" relative="1" as="geometry">
            <mxPoint x="19" as="offset" />
          </mxGeometry>
        </mxCell>
        <mxCell id="-ura81-7l-kkNAonVIPx-33" value="" style="endArrow=classic;html=1;rounded=0;dashed=1;" edge="1" parent="1">
          <mxGeometry width="50" height="50" relative="1" as="geometry">
            <mxPoint x="439.5" y="640" as="sourcePoint" />
            <mxPoint x="269.5" y="640" as="targetPoint" />
          </mxGeometry>
        </mxCell>
        <mxCell id="-ura81-7l-kkNAonVIPx-34" value="Updates dynamically&lt;div&gt;the HTML content&lt;/div&gt;" style="edgeLabel;html=1;align=center;verticalAlign=middle;resizable=0;points=[];" vertex="1" connectable="0" parent="-ura81-7l-kkNAonVIPx-33">
          <mxGeometry x="0.1235" y="1" relative="1" as="geometry">
            <mxPoint x="16" as="offset" />
          </mxGeometry>
        </mxCell>
        <mxCell id="-ura81-7l-kkNAonVIPx-35" value="" style="endArrow=classic;html=1;rounded=0;dashed=1;" edge="1" parent="1">
          <mxGeometry width="50" height="50" relative="1" as="geometry">
            <mxPoint x="269.5" y="670" as="sourcePoint" />
            <mxPoint x="89.5" y="670" as="targetPoint" />
          </mxGeometry>
        </mxCell>
        <mxCell id="-ura81-7l-kkNAonVIPx-36" value="Manufactures a&amp;nbsp;&lt;div&gt;message&lt;/div&gt;" style="edgeLabel;html=1;align=center;verticalAlign=middle;resizable=0;points=[];" vertex="1" connectable="0" parent="-ura81-7l-kkNAonVIPx-35">
          <mxGeometry x="0.3389" y="1" relative="1" as="geometry">
            <mxPoint x="32" as="offset" />
          </mxGeometry>
        </mxCell>
        <mxCell id="-ura81-7l-kkNAonVIPx-37" value="" style="endArrow=classic;html=1;rounded=0;" edge="1" parent="1">
          <mxGeometry width="50" height="50" relative="1" as="geometry">
            <mxPoint x="89.5" y="700.0049295774648" as="sourcePoint" />
            <mxPoint x="-90" y="700.0049295774648" as="targetPoint" />
          </mxGeometry>
        </mxCell>
        <mxCell id="-ura81-7l-kkNAonVIPx-38" value="Displays a message&amp;nbsp;&lt;div&gt;to the user that the note&lt;/div&gt;&lt;div&gt;has been deleted&lt;/div&gt;" style="edgeLabel;html=1;align=center;verticalAlign=middle;resizable=0;points=[];" vertex="1" connectable="0" parent="-ura81-7l-kkNAonVIPx-37">
          <mxGeometry x="-0.1253" relative="1" as="geometry">
            <mxPoint x="1" as="offset" />
          </mxGeometry>
        </mxCell>
      </root>
    </mxGraphModel>
  </diagram>
</mxfile>
